<mxfile host="app.diagrams.net" modified="2021-10-04T20:22:36.741Z" agent="5.0 (Windows NT 10.0; Win64; x64) AppleWebKit/537.36 (KHTML, like Gecko) Chrome/94.0.4606.71 Safari/537.36 Edg/94.0.992.38" etag="0fK--NxlzfCfSNuSJDgk" version="15.4.1" type="github">
  <diagram id="iLErq7WvWt9j3S8JXRM4" name="Page-1">
    <mxGraphModel dx="4121" dy="495" grid="1" gridSize="10" guides="1" tooltips="1" connect="1" arrows="1" fold="1" page="1" pageScale="1" pageWidth="827" pageHeight="1169" math="0" shadow="0">
      <root>
        <mxCell id="0" />
        <mxCell id="1" parent="0" />
        <object label="TuDrogueria " id="Q-ztdBQz_QTRS-wrmiZl-7">
          <mxCell style="swimlane;childLayout=stackLayout;resizeParent=1;resizeParentMax=0;horizontal=1;startSize=20;horizontalStack=0;" parent="1" vertex="1">
            <mxGeometry x="-3290" y="100" width="1330" height="790" as="geometry">
              <mxRectangle x="-2470" y="160" width="60" height="20" as="alternateBounds" />
            </mxGeometry>
          </mxCell>
        </object>
        <mxCell id="Q-ztdBQz_QTRS-wrmiZl-8" value="&#xa;Cliente&#xa;" style="swimlane;startSize=20;horizontal=0;" parent="Q-ztdBQz_QTRS-wrmiZl-7" vertex="1">
          <mxGeometry y="20" width="1330" height="150" as="geometry">
            <mxRectangle y="20" width="790" height="20" as="alternateBounds" />
          </mxGeometry>
        </mxCell>
        <mxCell id="Q-ztdBQz_QTRS-wrmiZl-12" value="" style="ellipse;whiteSpace=wrap;html=1;aspect=fixed;fillColor=#d5e8d4;strokeColor=#82b366;" parent="Q-ztdBQz_QTRS-wrmiZl-8" vertex="1">
          <mxGeometry x="40" y="30" width="30" height="30" as="geometry" />
        </mxCell>
        <mxCell id="Q-ztdBQz_QTRS-wrmiZl-14" value="Ingresar a la pagina&amp;nbsp;" style="rounded=1;whiteSpace=wrap;html=1;" parent="Q-ztdBQz_QTRS-wrmiZl-8" vertex="1">
          <mxGeometry x="150" y="22.5" width="90" height="45" as="geometry" />
        </mxCell>
        <mxCell id="Q-ztdBQz_QTRS-wrmiZl-18" value="" style="curved=1;endArrow=classic;html=1;rounded=0;edgeStyle=orthogonalEdgeStyle;" parent="Q-ztdBQz_QTRS-wrmiZl-8" edge="1">
          <mxGeometry width="50" height="50" relative="1" as="geometry">
            <mxPoint x="190" y="67.5" as="sourcePoint" />
            <mxPoint x="190" y="180" as="targetPoint" />
            <Array as="points">
              <mxPoint x="190" y="77.5" />
              <mxPoint x="190" y="77.5" />
            </Array>
          </mxGeometry>
        </mxCell>
        <mxCell id="Q-ztdBQz_QTRS-wrmiZl-21" value="Elegir Producto de Interes" style="rounded=1;whiteSpace=wrap;html=1;" parent="Q-ztdBQz_QTRS-wrmiZl-8" vertex="1">
          <mxGeometry x="270" y="20" width="100" height="47.5" as="geometry" />
        </mxCell>
        <mxCell id="Q-ztdBQz_QTRS-wrmiZl-22" value="" style="edgeStyle=segmentEdgeStyle;endArrow=classic;html=1;rounded=0;" parent="Q-ztdBQz_QTRS-wrmiZl-8" edge="1">
          <mxGeometry width="50" height="50" relative="1" as="geometry">
            <mxPoint x="370" y="50" as="sourcePoint" />
            <mxPoint x="420" y="180" as="targetPoint" />
          </mxGeometry>
        </mxCell>
        <mxCell id="Q-ztdBQz_QTRS-wrmiZl-43" value="" style="curved=1;endArrow=classic;html=1;rounded=0;edgeStyle=orthogonalEdgeStyle;entryX=0;entryY=0.5;entryDx=0;entryDy=0;" parent="Q-ztdBQz_QTRS-wrmiZl-8" edge="1">
          <mxGeometry width="50" height="50" relative="1" as="geometry">
            <mxPoint x="70" y="43" as="sourcePoint" />
            <mxPoint x="150" y="43.25" as="targetPoint" />
            <Array as="points">
              <mxPoint x="150" y="43.25" />
            </Array>
          </mxGeometry>
        </mxCell>
        <mxCell id="Q-ztdBQz_QTRS-wrmiZl-9" value="Página" style="swimlane;startSize=20;horizontal=0;" parent="Q-ztdBQz_QTRS-wrmiZl-7" vertex="1">
          <mxGeometry y="170" width="1330" height="500" as="geometry" />
        </mxCell>
        <mxCell id="Q-ztdBQz_QTRS-wrmiZl-19" value="Mostrar Productos de Interés" style="rounded=1;whiteSpace=wrap;html=1;" parent="Q-ztdBQz_QTRS-wrmiZl-9" vertex="1">
          <mxGeometry x="150" y="30" width="90" height="40" as="geometry" />
        </mxCell>
        <mxCell id="Q-ztdBQz_QTRS-wrmiZl-20" value="" style="endArrow=classic;html=1;rounded=0;edgeStyle=orthogonalEdgeStyle;" parent="Q-ztdBQz_QTRS-wrmiZl-9" edge="1">
          <mxGeometry width="50" height="50" relative="1" as="geometry">
            <mxPoint x="240" y="50" as="sourcePoint" />
            <mxPoint x="310" y="-80" as="targetPoint" />
            <Array as="points">
              <mxPoint x="310" y="50" />
              <mxPoint x="310" y="-70" />
            </Array>
          </mxGeometry>
        </mxCell>
        <mxCell id="Q-ztdBQz_QTRS-wrmiZl-24" value="Verificar Producción" style="rounded=1;whiteSpace=wrap;html=1;" parent="Q-ztdBQz_QTRS-wrmiZl-9" vertex="1">
          <mxGeometry x="370" y="30" width="100" height="40" as="geometry" />
        </mxCell>
        <mxCell id="Q-ztdBQz_QTRS-wrmiZl-28" value="" style="rhombus;whiteSpace=wrap;html=1;" parent="Q-ztdBQz_QTRS-wrmiZl-9" vertex="1">
          <mxGeometry x="570" y="25" width="50" height="50" as="geometry" />
        </mxCell>
        <mxCell id="Q-ztdBQz_QTRS-wrmiZl-25" value="" style="curved=1;endArrow=classic;html=1;rounded=0;edgeStyle=orthogonalEdgeStyle;exitX=1;exitY=0.5;exitDx=0;exitDy=0;entryX=0;entryY=0.5;entryDx=0;entryDy=0;" parent="Q-ztdBQz_QTRS-wrmiZl-9" source="Q-ztdBQz_QTRS-wrmiZl-24" target="Q-ztdBQz_QTRS-wrmiZl-28" edge="1">
          <mxGeometry width="50" height="50" relative="1" as="geometry">
            <mxPoint x="610" y="110" as="sourcePoint" />
            <mxPoint x="570" y="60" as="targetPoint" />
            <Array as="points">
              <mxPoint x="570" y="50" />
            </Array>
          </mxGeometry>
        </mxCell>
        <mxCell id="Q-ztdBQz_QTRS-wrmiZl-30" value="" style="curved=1;endArrow=classic;html=1;rounded=0;edgeStyle=orthogonalEdgeStyle;exitX=1;exitY=0.5;exitDx=0;exitDy=0;" parent="Q-ztdBQz_QTRS-wrmiZl-9" edge="1">
          <mxGeometry width="50" height="50" relative="1" as="geometry">
            <mxPoint x="620" y="49.5" as="sourcePoint" />
            <mxPoint x="700" y="49.5" as="targetPoint" />
            <Array as="points">
              <mxPoint x="700" y="49.5" />
              <mxPoint x="700" y="49.5" />
            </Array>
          </mxGeometry>
        </mxCell>
        <mxCell id="Q-ztdBQz_QTRS-wrmiZl-31" value="" style="curved=1;endArrow=classic;html=1;rounded=0;edgeStyle=orthogonalEdgeStyle;" parent="Q-ztdBQz_QTRS-wrmiZl-9" edge="1">
          <mxGeometry width="50" height="50" relative="1" as="geometry">
            <mxPoint x="594.5" y="75" as="sourcePoint" />
            <mxPoint x="595" y="100" as="targetPoint" />
            <Array as="points">
              <mxPoint x="594.5" y="85" />
              <mxPoint x="594.5" y="85" />
            </Array>
          </mxGeometry>
        </mxCell>
        <mxCell id="Q-ztdBQz_QTRS-wrmiZl-32" value="SI" style="text;html=1;align=center;verticalAlign=middle;resizable=0;points=[];autosize=1;strokeColor=none;fillColor=none;" parent="Q-ztdBQz_QTRS-wrmiZl-9" vertex="1">
          <mxGeometry x="600" y="70" width="30" height="20" as="geometry" />
        </mxCell>
        <mxCell id="Q-ztdBQz_QTRS-wrmiZl-33" value="NO" style="text;html=1;align=center;verticalAlign=middle;resizable=0;points=[];autosize=1;strokeColor=none;fillColor=none;" parent="Q-ztdBQz_QTRS-wrmiZl-9" vertex="1">
          <mxGeometry x="650" y="30" width="30" height="20" as="geometry" />
        </mxCell>
        <mxCell id="Q-ztdBQz_QTRS-wrmiZl-35" value="&lt;span&gt;Dirigirse a carrito de compras&lt;/span&gt;" style="rounded=1;whiteSpace=wrap;html=1;" parent="Q-ztdBQz_QTRS-wrmiZl-9" vertex="1">
          <mxGeometry x="550" y="240" width="90" height="40" as="geometry" />
        </mxCell>
        <mxCell id="Q-ztdBQz_QTRS-wrmiZl-36" value="" style="curved=1;endArrow=classic;html=1;rounded=0;edgeStyle=orthogonalEdgeStyle;exitX=1;exitY=0.363;exitDx=0;exitDy=0;exitPerimeter=0;" parent="Q-ztdBQz_QTRS-wrmiZl-9" source="Q-ztdBQz_QTRS-wrmiZl-34" edge="1">
          <mxGeometry width="50" height="50" relative="1" as="geometry">
            <mxPoint x="800" y="49.5" as="sourcePoint" />
            <mxPoint x="880" y="49.5" as="targetPoint" />
            <Array as="points" />
          </mxGeometry>
        </mxCell>
        <mxCell id="Q-ztdBQz_QTRS-wrmiZl-34" value="Mostrar productos similares" style="rounded=1;whiteSpace=wrap;html=1;" parent="Q-ztdBQz_QTRS-wrmiZl-9" vertex="1">
          <mxGeometry x="700" y="35" width="90" height="40" as="geometry" />
        </mxCell>
        <mxCell id="Q-ztdBQz_QTRS-wrmiZl-38" value="" style="rhombus;whiteSpace=wrap;html=1;" parent="Q-ztdBQz_QTRS-wrmiZl-9" vertex="1">
          <mxGeometry x="880" y="25" width="50" height="50" as="geometry" />
        </mxCell>
        <mxCell id="Q-ztdBQz_QTRS-wrmiZl-40" value="" style="curved=1;endArrow=classic;html=1;rounded=0;edgeStyle=orthogonalEdgeStyle;exitX=1;exitY=0.363;exitDx=0;exitDy=0;exitPerimeter=0;" parent="Q-ztdBQz_QTRS-wrmiZl-9" edge="1">
          <mxGeometry width="50" height="50" relative="1" as="geometry">
            <mxPoint x="930" y="50.01999999999998" as="sourcePoint" />
            <mxPoint x="1020" y="50" as="targetPoint" />
            <Array as="points" />
          </mxGeometry>
        </mxCell>
        <mxCell id="Q-ztdBQz_QTRS-wrmiZl-42" value="" style="ellipse;whiteSpace=wrap;html=1;aspect=fixed;fillColor=#f8cecc;strokeColor=#b85450;" parent="Q-ztdBQz_QTRS-wrmiZl-9" vertex="1">
          <mxGeometry x="1020" y="35" width="35" height="35" as="geometry" />
        </mxCell>
        <mxCell id="Q-ztdBQz_QTRS-wrmiZl-60" value="&lt;span&gt;Registrado en el carrito de compras&lt;/span&gt;" style="rounded=1;whiteSpace=wrap;html=1;" parent="Q-ztdBQz_QTRS-wrmiZl-9" vertex="1">
          <mxGeometry x="550" y="100" width="90" height="40" as="geometry" />
        </mxCell>
        <mxCell id="Q-ztdBQz_QTRS-wrmiZl-61" value="" style="endArrow=classic;html=1;rounded=0;edgeStyle=orthogonalEdgeStyle;exitX=0.5;exitY=1;exitDx=0;exitDy=0;entryX=1;entryY=0.5;entryDx=0;entryDy=0;" parent="Q-ztdBQz_QTRS-wrmiZl-9" source="Q-ztdBQz_QTRS-wrmiZl-38" target="Q-ztdBQz_QTRS-wrmiZl-60" edge="1">
          <mxGeometry width="50" height="50" relative="1" as="geometry">
            <mxPoint x="610" y="260" as="sourcePoint" />
            <mxPoint x="660" y="210" as="targetPoint" />
          </mxGeometry>
        </mxCell>
        <mxCell id="Q-ztdBQz_QTRS-wrmiZl-63" value="" style="curved=1;endArrow=classic;html=1;rounded=0;edgeStyle=orthogonalEdgeStyle;" parent="Q-ztdBQz_QTRS-wrmiZl-9" edge="1">
          <mxGeometry width="50" height="50" relative="1" as="geometry">
            <mxPoint x="594.5" y="140" as="sourcePoint" />
            <mxPoint x="595" y="160" as="targetPoint" />
            <Array as="points">
              <mxPoint x="595" y="160" />
              <mxPoint x="595" y="160" />
            </Array>
          </mxGeometry>
        </mxCell>
        <mxCell id="Q-ztdBQz_QTRS-wrmiZl-29" value="¿Producto disponible? " style="text;html=1;align=center;verticalAlign=middle;resizable=0;points=[];autosize=1;strokeColor=none;fillColor=none;" parent="Q-ztdBQz_QTRS-wrmiZl-9" vertex="1">
          <mxGeometry x="530" y="5" width="130" height="20" as="geometry" />
        </mxCell>
        <mxCell id="Q-ztdBQz_QTRS-wrmiZl-39" value="&amp;nbsp;¿El cliente elige el Producto?" style="text;html=1;align=center;verticalAlign=middle;resizable=0;points=[];autosize=1;strokeColor=none;fillColor=none;" parent="Q-ztdBQz_QTRS-wrmiZl-9" vertex="1">
          <mxGeometry x="809" width="170" height="20" as="geometry" />
        </mxCell>
        <mxCell id="Q-ztdBQz_QTRS-wrmiZl-41" value="NO" style="text;html=1;align=center;verticalAlign=middle;resizable=0;points=[];autosize=1;strokeColor=none;fillColor=none;" parent="Q-ztdBQz_QTRS-wrmiZl-9" vertex="1">
          <mxGeometry x="970" y="30" width="30" height="20" as="geometry" />
        </mxCell>
        <mxCell id="RgVQddcgOOPo6vJ5mXaN-2" value="" style="rhombus;whiteSpace=wrap;html=1;" vertex="1" parent="Q-ztdBQz_QTRS-wrmiZl-9">
          <mxGeometry x="570" y="160" width="50" height="50" as="geometry" />
        </mxCell>
        <mxCell id="RgVQddcgOOPo6vJ5mXaN-1" value="" style="curved=1;endArrow=classic;html=1;rounded=0;edgeStyle=orthogonalEdgeStyle;exitX=0.5;exitY=1;exitDx=0;exitDy=0;" edge="1" parent="Q-ztdBQz_QTRS-wrmiZl-9" source="Q-ztdBQz_QTRS-wrmiZl-35">
          <mxGeometry width="50" height="50" relative="1" as="geometry">
            <mxPoint x="630" y="310" as="sourcePoint" />
            <mxPoint x="595" y="310" as="targetPoint" />
            <Array as="points">
              <mxPoint x="595" y="310" />
            </Array>
          </mxGeometry>
        </mxCell>
        <mxCell id="RgVQddcgOOPo6vJ5mXaN-3" value="¿Elegír mas Productos?&amp;nbsp;" style="text;html=1;align=center;verticalAlign=middle;resizable=0;points=[];autosize=1;strokeColor=none;fillColor=none;" vertex="1" parent="Q-ztdBQz_QTRS-wrmiZl-9">
          <mxGeometry x="620" y="175" width="150" height="20" as="geometry" />
        </mxCell>
        <mxCell id="RgVQddcgOOPo6vJ5mXaN-4" value="" style="curved=1;endArrow=classic;html=1;rounded=0;edgeStyle=orthogonalEdgeStyle;exitX=0.5;exitY=1;exitDx=0;exitDy=0;entryX=0.5;entryY=0;entryDx=0;entryDy=0;" edge="1" parent="Q-ztdBQz_QTRS-wrmiZl-9" source="RgVQddcgOOPo6vJ5mXaN-2" target="Q-ztdBQz_QTRS-wrmiZl-35">
          <mxGeometry width="50" height="50" relative="1" as="geometry">
            <mxPoint x="605" y="290" as="sourcePoint" />
            <mxPoint x="720" y="240" as="targetPoint" />
            <Array as="points">
              <mxPoint x="595" y="230" />
              <mxPoint x="595" y="230" />
            </Array>
          </mxGeometry>
        </mxCell>
        <mxCell id="RgVQddcgOOPo6vJ5mXaN-5" value="" style="endArrow=classic;html=1;rounded=0;edgeStyle=orthogonalEdgeStyle;" edge="1" parent="Q-ztdBQz_QTRS-wrmiZl-9" source="RgVQddcgOOPo6vJ5mXaN-2">
          <mxGeometry width="50" height="50" relative="1" as="geometry">
            <mxPoint x="540" y="120" as="sourcePoint" />
            <mxPoint x="320" y="-80" as="targetPoint" />
          </mxGeometry>
        </mxCell>
        <mxCell id="RgVQddcgOOPo6vJ5mXaN-7" value="NO" style="text;html=1;align=center;verticalAlign=middle;resizable=0;points=[];autosize=1;strokeColor=none;fillColor=none;" vertex="1" parent="Q-ztdBQz_QTRS-wrmiZl-9">
          <mxGeometry x="600" y="210" width="30" height="20" as="geometry" />
        </mxCell>
        <mxCell id="RgVQddcgOOPo6vJ5mXaN-9" value="" style="curved=1;endArrow=classic;html=1;rounded=0;edgeStyle=orthogonalEdgeStyle;exitX=0.5;exitY=1;exitDx=0;exitDy=0;" edge="1" parent="Q-ztdBQz_QTRS-wrmiZl-9" source="RgVQddcgOOPo6vJ5mXaN-10">
          <mxGeometry width="50" height="50" relative="1" as="geometry">
            <mxPoint x="595" y="350" as="sourcePoint" />
            <mxPoint x="595" y="390" as="targetPoint" />
            <Array as="points" />
          </mxGeometry>
        </mxCell>
        <mxCell id="RgVQddcgOOPo6vJ5mXaN-10" value="" style="rhombus;whiteSpace=wrap;html=1;" vertex="1" parent="Q-ztdBQz_QTRS-wrmiZl-9">
          <mxGeometry x="570" y="310" width="50" height="50" as="geometry" />
        </mxCell>
        <mxCell id="RgVQddcgOOPo6vJ5mXaN-11" value="" style="curved=1;endArrow=classic;html=1;rounded=0;edgeStyle=orthogonalEdgeStyle;exitX=1;exitY=0.5;exitDx=0;exitDy=0;" edge="1" parent="Q-ztdBQz_QTRS-wrmiZl-9">
          <mxGeometry width="50" height="50" relative="1" as="geometry">
            <mxPoint x="619.9699999999998" y="334.71000000000004" as="sourcePoint" />
            <mxPoint x="699.9699999999998" y="334.71000000000004" as="targetPoint" />
            <Array as="points">
              <mxPoint x="699.9699999999998" y="334.71000000000004" />
              <mxPoint x="699.9699999999998" y="334.71000000000004" />
            </Array>
          </mxGeometry>
        </mxCell>
        <mxCell id="RgVQddcgOOPo6vJ5mXaN-12" value="¿Comprar Producto?&amp;nbsp;" style="text;html=1;align=center;verticalAlign=middle;resizable=0;points=[];autosize=1;strokeColor=none;fillColor=none;" vertex="1" parent="Q-ztdBQz_QTRS-wrmiZl-9">
          <mxGeometry x="600" y="295" width="130" height="20" as="geometry" />
        </mxCell>
        <mxCell id="RgVQddcgOOPo6vJ5mXaN-13" value="NO" style="text;html=1;align=center;verticalAlign=middle;resizable=0;points=[];autosize=1;strokeColor=none;fillColor=none;" vertex="1" parent="Q-ztdBQz_QTRS-wrmiZl-9">
          <mxGeometry x="600" y="360" width="30" height="20" as="geometry" />
        </mxCell>
        <mxCell id="RgVQddcgOOPo6vJ5mXaN-14" value="&lt;span&gt;Eliminar producto del carrito&lt;/span&gt;" style="rounded=1;whiteSpace=wrap;html=1;" vertex="1" parent="Q-ztdBQz_QTRS-wrmiZl-9">
          <mxGeometry x="550" y="390" width="90" height="40" as="geometry" />
        </mxCell>
        <mxCell id="RgVQddcgOOPo6vJ5mXaN-17" value="" style="ellipse;whiteSpace=wrap;html=1;aspect=fixed;fillColor=#f8cecc;strokeColor=#b85450;" vertex="1" parent="Q-ztdBQz_QTRS-wrmiZl-9">
          <mxGeometry x="577.5" y="460" width="35" height="35" as="geometry" />
        </mxCell>
        <mxCell id="RgVQddcgOOPo6vJ5mXaN-18" value="SI" style="text;html=1;align=center;verticalAlign=middle;resizable=0;points=[];autosize=1;strokeColor=none;fillColor=none;" vertex="1" parent="Q-ztdBQz_QTRS-wrmiZl-9">
          <mxGeometry x="650" y="315" width="30" height="20" as="geometry" />
        </mxCell>
        <mxCell id="RgVQddcgOOPo6vJ5mXaN-19" value="Iniciar Sesión" style="rounded=1;whiteSpace=wrap;html=1;" vertex="1" parent="Q-ztdBQz_QTRS-wrmiZl-9">
          <mxGeometry x="700" y="315" width="90" height="40" as="geometry" />
        </mxCell>
        <mxCell id="RgVQddcgOOPo6vJ5mXaN-20" value="" style="curved=1;endArrow=classic;html=1;rounded=0;edgeStyle=orthogonalEdgeStyle;exitX=1;exitY=0.5;exitDx=0;exitDy=0;" edge="1" parent="Q-ztdBQz_QTRS-wrmiZl-9">
          <mxGeometry width="50" height="50" relative="1" as="geometry">
            <mxPoint x="789.9999999999995" y="334.43000000000006" as="sourcePoint" />
            <mxPoint x="869.9999999999995" y="334.43000000000006" as="targetPoint" />
            <Array as="points">
              <mxPoint x="870" y="334.43000000000006" />
              <mxPoint x="870" y="334.43000000000006" />
            </Array>
          </mxGeometry>
        </mxCell>
        <mxCell id="RgVQddcgOOPo6vJ5mXaN-21" value="" style="rhombus;whiteSpace=wrap;html=1;" vertex="1" parent="Q-ztdBQz_QTRS-wrmiZl-9">
          <mxGeometry x="869" y="310" width="50" height="50" as="geometry" />
        </mxCell>
        <mxCell id="Q-ztdBQz_QTRS-wrmiZl-10" value="Administrador" style="swimlane;startSize=20;horizontal=0;" parent="Q-ztdBQz_QTRS-wrmiZl-7" vertex="1">
          <mxGeometry y="670" width="1330" height="120" as="geometry" />
        </mxCell>
        <mxCell id="RgVQddcgOOPo6vJ5mXaN-6" value="SI" style="text;html=1;align=center;verticalAlign=middle;resizable=0;points=[];autosize=1;strokeColor=none;fillColor=none;" vertex="1" parent="1">
          <mxGeometry x="-2865" y="430" width="30" height="20" as="geometry" />
        </mxCell>
        <mxCell id="RgVQddcgOOPo6vJ5mXaN-15" value="" style="curved=1;endArrow=classic;html=1;rounded=0;edgeStyle=orthogonalEdgeStyle;exitX=0.5;exitY=1;exitDx=0;exitDy=0;" edge="1" parent="1" source="RgVQddcgOOPo6vJ5mXaN-14">
          <mxGeometry width="50" height="50" relative="1" as="geometry">
            <mxPoint x="-2685" y="640" as="sourcePoint" />
            <mxPoint x="-2695" y="730" as="targetPoint" />
            <Array as="points">
              <mxPoint x="-2695" y="720" />
              <mxPoint x="-2695" y="720" />
            </Array>
          </mxGeometry>
        </mxCell>
      </root>
    </mxGraphModel>
  </diagram>
</mxfile>
